name Run_300 02_newCOP3_v24.mot
datacolumns 19
datarows 17
range 1.23500000 1.25100000
endheader
                time	   R_ground_force_vx	   R_ground_force_vy	   R_ground_force_vz	   R_ground_force_px	   R_ground_force_py	   R_ground_force_pz	   L_ground_force_vx	   L_ground_force_vy	   L_ground_force_vz	   L_ground_force_px	   L_ground_force_py	   L_ground_force_pz	   R_ground_torque_x	   R_ground_torque_y	   R_ground_torque_z	   L_ground_torque_x	   L_ground_torque_y	   L_ground_torque_z	
          1.23500000	         -7.86283000	         15.86332500	         -3.19359700	          1.09705700	          0.00000000	         -0.27632100	          0.00000000	          0.00000000	          0.00000000	          0.00000000	          0.00000000	          0.00000000	          0.00000000	         -0.37290500	          0.00000000	          0.00000000	          0.00000000	          0.00000000	
          1.23600000	         -8.85436000	         18.33065600	         -3.61108900	          1.09727000	          0.00000000	         -0.27774000	          0.00000000	          0.00000000	          0.00000000	          0.00000000	          0.00000000	          0.00000000	          0.00000000	         -0.22088200	          0.00000000	          0.00000000	          0.00000000	          0.00000000	
          1.23700000	         -9.95042000	         21.13608200	         -4.06284200	          1.09799100	          0.00000000	         -0.27904200	          0.00000000	          0.00000000	          0.00000000	          0.00000000	          0.00000000	          0.00000000	          0.00000000	         -0.06155500	          0.00000000	          0.00000000	          0.00000000	          0.00000000	
          1.23800000	        -11.15308900	         24.31703400	         -4.55055500	          1.09906100	          0.00000000	         -0.28022200	          0.00000000	          0.00000000	          0.00000000	          0.00000000	          0.00000000	          0.00000000	         -0.00000000	          0.10480900	         -0.00000000	          0.00000000	          0.00000000	          0.00000000	
          1.23900000	        -12.46295900	         27.91371300	         -5.07582200	          1.10035900	          0.00000000	         -0.28127900	          0.00000000	          0.00000000	          0.00000000	          0.00000000	          0.00000000	          0.00000000	         -0.00000000	          0.27790900	         -0.00000000	          0.00000000	          0.00000000	          0.00000000	
          1.24000000	        -13.87891600	         31.96903200	         -5.64011500	          1.10179300	          0.00000000	         -0.28222000	          0.00000000	          0.00000000	          0.00000000	          0.00000000	          0.00000000	          0.00000000	         -0.00000000	          0.45741000	         -0.00000000	          0.00000000	          0.00000000	          0.00000000	
          1.24100000	        -15.39791300	         36.52849200	         -6.24475100	          1.10329400	          0.00000000	         -0.28305200	          0.00000000	          0.00000000	          0.00000000	          0.00000000	          0.00000000	          0.00000000	         -0.00000000	          0.64294400	         -0.00000000	          0.00000000	          0.00000000	          0.00000000	
          1.24200000	        -17.01478000	         41.64001800	         -6.89086600	          1.10481200	          0.00000000	         -0.28378600	          0.00000000	          0.00000000	          0.00000000	          0.00000000	          0.00000000	          0.00000000	         -0.00000000	          0.83410800	         -0.00000000	          0.00000000	          0.00000000	          0.00000000	
          1.24300000	        -18.72205700	         47.35373300	         -7.57937700	          1.10630800	          0.00000000	         -0.28443400	          0.00000000	          0.00000000	          0.00000000	          0.00000000	          0.00000000	          0.00000000	         -0.00000000	          1.03046800	         -0.00000000	          0.00000000	          0.00000000	          0.00000000	
          1.24400000	        -20.50988400	         53.72165700	         -8.31095500	          1.10775400	          0.00000000	         -0.28500800	          0.00000000	          0.00000000	          0.00000000	          0.00000000	          0.00000000	          0.00000000	         -0.00000000	          1.23155600	         -0.00000000	          0.00000000	          0.00000000	          0.00000000	
          1.24500000	        -22.36595200	         60.79734800	         -9.08598100	          1.10912800	          0.00000000	         -0.28552000	          0.00000000	          0.00000000	          0.00000000	          0.00000000	          0.00000000	          0.00000000	         -0.00000000	          1.43687700	         -0.00000000	          0.00000000	          0.00000000	          0.00000000	
          1.24600000	        -24.27551700	         68.63548300	         -9.90451100	          1.11041500	          0.00000000	         -0.28598000	          0.00000000	          0.00000000	          0.00000000	          0.00000000	          0.00000000	          0.00000000	         -0.00000000	          1.64590500	         -0.00000000	          0.00000000	          0.00000000	          0.00000000	
          1.24700000	        -26.22152500	         77.29138900	        -10.76623500	          1.11160300	          0.00000000	         -0.28639900	          0.00000000	          0.00000000	          0.00000000	          0.00000000	          0.00000000	          0.00000000	         -0.00000000	          1.85808500	         -0.00000000	          0.00000000	          0.00000000	          0.00000000	
          1.24800000	        -28.18480900	         86.82045000	        -11.67043700	          1.11268100	          0.00000000	         -0.28678600	          0.00000000	          0.00000000	          0.00000000	          0.00000000	          0.00000000	          0.00000000	         -0.00000000	          2.07283800	         -0.00000000	          0.00000000	          0.00000000	          0.00000000	
          1.24900000	        -30.14439800	         97.27753400	        -12.61595300	          1.11364400	          0.00000000	         -0.28714900	          0.00000000	          0.00000000	          0.00000000	          0.00000000	          0.00000000	          0.00000000	         -0.00000000	          2.28956100	         -0.00000000	          0.00000000	          0.00000000	          0.00000000	
          1.25000000	        -32.07792300	        108.71627000	        -13.60113900	          1.11448400	          0.00000000	         -0.28749300	          0.00000000	          0.00000000	          0.00000000	          0.00000000	          0.00000000	          0.00000000	         -0.00000000	          2.50763000	         -0.00000000	          0.00000000	          0.00000000	          0.00000000	
          1.25100000	        -33.96212400	        121.18832400	        -14.62382300	          1.11519700	          0.00000000	         -0.28782700	          0.00000000	          0.00000000	          0.00000000	          0.00000000	          0.00000000	          0.00000000	         -0.00000000	          2.72639900	         -0.00000000	          0.00000000	          0.00000000	          0.00000000	
